<svg width="118" height="122" viewBox="0 0 118 122" fill="none" xmlns="http://www.w3.org/2000/svg">
<g clip-path="url(#clip0_89_801)">
<path d="M81.3714 18.3641L71.4826 14.5496L70.8675 16.107C52.9401 15.1286 34.4744 27.8286 26.4255 48.2709C18.3925 68.719 23.3442 90.4311 37.2488 101.676L36.6337 103.234L46.5282 107.032C67.2453 114.999 91.841 101.615 101.474 77.1252C111.086 52.6457 102.088 26.3314 81.3714 18.3641Z" fill="#CF931D"/>
<path d="M91.1929 74.2585C101.244 49.9441 92.7652 23.3624 72.255 14.8867C51.7448 6.41099 26.97 19.2508 16.9189 43.5652C6.86775 67.8796 15.3465 94.4613 35.8567 102.937C56.3669 111.413 81.1418 98.5729 91.1929 74.2585Z" fill="#FBC03D"/>
<path d="M48.5744 101.75C44.9074 101.741 41.3524 101.071 37.9891 99.769C29.2832 96.4167 22.6247 89.13 19.2454 79.2332C15.7158 68.905 16.188 57.1075 20.5522 45.9934C24.0847 36.9877 29.8227 29.3515 37.1412 23.9201C44.0242 18.7989 51.9762 16.0036 59.5402 16.0334C63.2014 16.0587 66.7564 16.7286 70.1255 18.0143C78.8314 21.3666 85.4899 28.6533 88.8692 38.5501C92.3988 48.8783 91.9266 60.6758 87.5624 71.7899C84.0298 80.7956 78.2919 88.4318 70.9733 93.8632C64.1063 98.9902 56.1383 101.78 48.5744 101.75Z" fill="#FBC03D"/>
<path d="M22.4725 80.4139C18.9531 70.1072 19.4138 58.3415 23.7722 47.2434C28.1306 36.1452 35.8334 27.1505 45.4546 21.9198C54.116 17.2057 63.3289 16.1046 71.6015 18.7617C71.0932 18.5246 70.5893 18.3251 70.0695 18.1199C61.4114 14.7848 51.5603 15.7099 42.362 20.7157C32.7351 25.9623 25.0323 34.9571 20.6796 46.0393C16.3212 57.1374 15.8547 68.919 19.3799 79.2098C22.7387 89.0632 29.3712 96.3226 38.0292 99.6576C38.549 99.8629 39.0803 100.036 39.5956 100.204C31.6815 96.6518 25.6312 89.6741 22.4725 80.4139Z" fill="#CF931D"/>
<path d="M49.8885 67.9914L49.9637 67.9826L50 68.0316L50.0592 68.017L50.0955 68.066L50.1548 68.0514L50.1911 68.1005L50.2503 68.0859L50.2866 68.1349L50.3459 68.1203L50.3822 68.1693L50.4414 68.1547L50.4777 68.2037L50.537 68.1891L50.5733 68.2382L50.6484 68.2293L50.6688 68.2726L50.744 68.2637L50.7803 68.3127L50.8395 68.2981L50.8759 68.3472L50.9351 68.3326L50.9714 68.3816L51.0306 68.367L51.067 68.416L51.1262 68.4014L51.1625 68.4504L51.2217 68.4358L51.258 68.4849L51.3173 68.4703L51.3536 68.5193L51.4288 68.5104L51.4651 68.5595L51.5243 68.5449L51.5606 68.5939L51.6199 68.5793L51.6562 68.6283L51.7154 68.6137L51.7517 68.6627L51.811 68.6481L51.8473 68.6972L51.9065 68.6826L51.9428 68.7316L52.0021 68.717L52.0384 68.766L52.1135 68.7572L52.1498 68.8062L52.2091 68.7916L52.2454 68.8406L52.3046 68.826L52.3409 68.875L52.4002 68.8604L52.4365 68.9095L52.4957 68.8949L52.532 68.9439L52.5913 68.9293L52.6276 68.9783L52.6868 68.9637L52.7231 69.0127L52.7983 69.0039L52.8187 69.0472L52.8938 69.0383L52.9302 69.0873L52.9894 69.0727L53.0257 69.1218L53.0849 69.1072L53.1213 69.1562L53.1805 69.1416L53.2168 69.1906L53.276 69.176L53.3124 69.225L53.3716 69.2104L53.4079 69.2595L53.4831 69.2506L53.5035 69.2939L53.5786 69.285L53.6149 69.334L53.6742 69.3194L53.7105 69.3685L53.7697 69.3539L53.806 69.4029L53.8653 69.3883L53.9016 69.4373L53.9608 69.4227L53.9971 69.4717L54.0564 69.4571L54.0927 69.5062L54.1519 69.4916L54.1882 69.5406L54.2634 69.5317L54.2997 69.5808L54.3589 69.5662L54.3953 69.6152L54.4545 69.6006L54.4908 69.6496L54.55 69.635L54.5864 69.684L54.6456 69.6694L54.6819 69.7185L54.7411 69.7039L54.7774 69.7529L54.8367 69.7383L54.873 69.7873L75.617 65.5451L72.6955 45.1395L71.9833 40.1749L71.1213 34.0782L70.1559 27.3692L70.0738 27.4474L70.0604 27.3347L69.9782 27.413L69.9648 27.3003L69.8827 27.3785L69.8693 27.2659L69.7871 27.3441L69.7737 27.2315L69.6916 27.3097L69.6782 27.197L69.596 27.2753L69.5826 27.1626L69.5005 27.2408L69.4712 27.1225L69.4049 27.2064L69.3756 27.088L69.2935 27.1662L69.2801 27.0536L69.1979 27.1318L69.1845 27.0192L69.1024 27.0974L69.089 26.9848L69.0068 27.063L68.9934 26.9503L68.9113 27.0285L68.8979 26.9159L68.8157 26.9941L68.7864 26.8757L68.7202 26.9597L68.6908 26.8413L68.6087 26.9195L68.5953 26.8069L68.5131 26.8851L68.4998 26.7725L68.4176 26.8507L68.4042 26.738L68.322 26.8163L68.3087 26.7036L68.2265 26.7818L68.2131 26.6692L68.1309 26.7474L68.1016 26.629L68.0354 26.713L68.0061 26.5946L67.9239 26.6728L67.9105 26.5602L67.8284 26.6384L67.815 26.5257L67.7328 26.604L67.7194 26.4913L67.6373 26.5695L67.6239 26.4569L67.5417 26.5351L67.5283 26.4225L67.4462 26.5007L67.4328 26.388L67.3506 26.4663L67.3213 26.3479L67.2392 26.4261L67.2258 26.3135L67.1436 26.3917L67.1302 26.279L67.0481 26.3572L67.0347 26.2446L66.9525 26.3228L66.9391 26.2102L66.857 26.2884L66.8436 26.1758L66.7614 26.254L66.748 26.1413L66.6659 26.2195L66.6365 26.1012L66.5703 26.1851L66.541 26.0667L66.4588 26.145L66.4454 26.0323L66.3633 26.1105L66.3499 25.9979L66.2677 26.0761L66.2543 25.9635L66.1722 26.0417L66.1588 25.929L66.0766 26.0072L66.0632 25.8946L65.9811 25.9728L65.9518 25.8544L65.8855 25.9384L65.8562 25.82L65.7741 25.8982L65.7607 25.7856L65.6785 25.8638L65.6651 25.7512L65.583 25.8294L65.5696 25.7167L65.4874 25.795L65.474 25.6823L65.3919 25.7605L65.3785 25.6479L65.2963 25.7261L65.2829 25.6135L65.2008 25.6917L65.1715 25.5733L50.6068 39.9304L38.1579 52.2106L38.1305 52.2367L40.8699 55.9191L49.8885 67.9914Z" fill="#CF931D"/>
<path d="M72.8978 70.4954L72.7201 70.5392L72.8023 70.4609L72.6246 70.5047L72.7067 70.4265L72.529 70.4703L72.5953 70.3864L72.4176 70.4301L72.4997 70.3519L72.322 70.3957L72.4042 70.3175L72.2265 70.3613L72.3086 70.2831L72.1309 70.3269L72.2131 70.2486L72.0354 70.2924L72.1175 70.2142L71.9398 70.258L72.022 70.1798L71.8443 70.2236L71.9105 70.1396L71.7328 70.1834L71.8149 70.1052L71.6372 70.149L71.7194 70.0708L71.5417 70.1146L71.6238 70.0364L71.4461 70.0801L71.5283 70.0019L71.3506 70.0457L71.4327 69.9675L71.255 70.0113L71.3372 69.9331L71.1595 69.9769L71.2257 69.8929L71.0639 69.9424L71.1302 69.8585L70.9525 69.9023L71.0346 69.8241L70.8569 69.8679L70.9391 69.7896L70.7614 69.8334L70.8435 69.7552L70.6658 69.799L70.748 69.7208L70.5703 69.7646L70.6524 69.6864L70.4747 69.7302L70.5569 69.6519L70.3792 69.6957L70.4454 69.6118L70.2677 69.6556L70.3499 69.5773L70.1721 69.6211L70.2543 69.5429L70.0766 69.5867L70.1588 69.5085L69.981 69.5523L70.0632 69.4741L69.8855 69.5179L69.9677 69.4396L69.7899 69.4834L69.8721 69.4052L69.6944 69.449L69.7606 69.3651L69.5829 69.4088L69.6651 69.3306L69.4874 69.3744L69.5695 69.2962L69.3918 69.34L69.474 69.2618L69.2963 69.3056L69.3784 69.2274L69.2007 69.2711L69.2829 69.1929L69.1052 69.2367L69.1873 69.1585L69.0096 69.2023L69.0759 69.1183L68.8982 69.1621L68.9803 69.0839L68.8026 69.1277L68.8848 69.0495L68.7071 69.0933L68.7892 69.0151L68.6115 69.0588L68.6937 68.9806L68.516 69.0244L68.5981 68.9462L68.4204 68.99L68.5026 68.9118L68.3249 68.9556L68.3911 68.8716L68.2293 68.9211L68.2955 68.8372L68.1178 68.881L68.2 68.8028L68.0223 68.8466L68.1044 68.7683L67.9267 68.8121L68.0089 68.7339L51.449 71.9499L42.2596 59.4027L41.9952 59.0379L42.0086 59.1506L41.8997 59.0035L41.9131 59.1162L41.8041 58.9691L41.8175 59.0817L41.7086 58.9347L41.722 59.0473L41.613 58.9002L41.6264 59.0129L41.5016 58.8601L41.515 58.9727L41.406 58.8256L41.4194 58.9383L41.3105 58.7912L41.3239 58.9039L41.2149 58.7568L41.2283 58.8694L41.1194 58.7224L41.1328 58.835L41.0238 58.6879L41.0372 58.8006L40.9283 58.6535L40.9417 58.7662L40.8327 58.6191L40.8302 58.726L40.7212 58.5789L40.7346 58.6916L40.6257 58.5445L40.6391 58.6571L40.5301 58.5101L40.5435 58.6227L40.4346 58.4757L40.448 58.5883L40.339 58.4412L40.3524 58.5539L40.2435 58.4068L40.2569 58.5194L40.1479 58.3724L40.1454 58.4793L40.0365 58.3322L40.0499 58.4449L39.9409 58.2978L39.9543 58.4104L39.8454 58.2634L39.8588 58.376L39.7498 58.2289L39.7632 58.3416L39.6543 58.1945L39.6677 58.3071L39.5587 58.1601L39.5721 58.2727L39.4632 58.1257L39.4766 58.2383L39.3517 58.0855L39.3651 58.1981L39.2562 58.0511L39.2695 58.1637L39.1606 58.0166L39.174 58.1293L39.0651 57.9822L39.0784 58.0949L38.9695 57.9478L38.9829 58.0604L38.874 57.9134L38.8873 58.026L38.7784 57.8789L38.7918 57.9916L38.6669 57.8388L38.6803 57.9514L38.5714 57.8044L38.5848 57.917L38.4758 57.7699L38.4892 57.8826L38.3803 57.7355L38.3937 57.8481L38.2847 57.7011L38.2981 57.8137L38.1892 57.6666L38.2026 57.7793L38.0936 57.6322L38.107 57.7449L37.9981 57.5978L37.9956 57.7047L37.8866 57.5576L37.9 57.6703L37.7911 57.5232L37.8045 57.6358L37.6955 57.4888L37.7089 57.6014L37.6 57.4544L37.6134 57.567L37.5044 57.4199L37.5178 57.5326L37.4089 57.3855L37.4223 57.4981L37.3133 57.3511L37.3108 57.458L37.2018 57.3109L37.2152 57.4236L37.1063 57.2765L37.1197 57.3891L37.0107 57.2421L37.0586 57.7085L39.9169 85.98L40.6855 93.5345L40.7836 93.4621L40.797 93.5747L40.8791 93.4965L40.8925 93.6091L40.9747 93.5309L40.9881 93.6436L41.0702 93.5653L41.0836 93.678L41.1658 93.5998L41.1792 93.7124L41.2613 93.6342L41.2747 93.7468L41.3569 93.6686L41.3703 93.7813L41.4683 93.7088L41.4658 93.8157L41.5639 93.7432L41.5773 93.8558L41.6594 93.7776L41.6728 93.8903L41.755 93.8121L41.7684 93.9247L41.8505 93.8465L41.8639 93.9591L41.9461 93.8809L41.9595 93.9936L42.0416 93.9153L42.055 94.028L42.1531 93.9555L42.1506 94.0624L42.2487 93.9899L42.262 94.1026L42.3442 94.0244L42.3576 94.137L42.4398 94.0588L42.4531 94.1714L42.5353 94.0932L42.5487 94.2058L42.6309 94.1276L42.6442 94.2403L42.7264 94.1621L42.7398 94.2747L42.8219 94.1965L42.8353 94.3091L42.9334 94.2366L42.9468 94.3493L43.029 94.2711L43.0424 94.3837L43.1245 94.3055L43.1379 94.4181L43.2201 94.3399L43.2335 94.4526L43.3156 94.3743L43.329 94.487L43.4112 94.4088L43.4246 94.5214L43.5067 94.4432L43.5201 94.5558L43.6182 94.4834L43.6157 94.5903L43.7137 94.5178L43.7271 94.6304L43.8093 94.5522L43.8227 94.6649L43.9048 94.5866L43.9182 94.6993L44.0004 94.6211L44.0138 94.7337L44.0959 94.6555L44.1093 94.7681L44.1915 94.6899L44.2049 94.8026L44.303 94.7301L44.3004 94.837L44.3985 94.7645L44.4119 94.8771L44.4941 94.7989L44.5075 94.9116L44.5896 94.8334L44.603 94.946L44.6852 94.8678L44.6986 94.9804L44.7807 94.9022L44.7941 95.0148L44.8763 94.9366L44.8897 95.0493L44.9877 94.9768L44.9852 95.0837L45.0833 95.0112L45.0967 95.1239L45.1788 95.0456L45.1922 95.1583L45.2744 95.0801L45.2878 95.1927L45.3699 95.1145L45.3833 95.2271L45.4655 95.1489L45.4789 95.2616L45.561 95.1834L45.5744 95.296L45.6566 95.2178L45.67 95.3304L61.1754 81.2584L72.9934 70.5298L72.8157 70.5736L72.8978 70.4954Z" fill="#CF931D"/>
<path d="M37.0107 57.2421L37.0586 57.7085L37.2751 57.6069L37.0107 57.2421Z" fill="#FDD77E"/>
<path d="M49.8885 67.9914L70.6325 63.7493L67.711 43.3436L66.9988 38.379L66.1368 32.2823L65.1715 25.5733L50.6068 39.9304L38.1579 52.2106L38.1305 52.2367L40.8699 55.9191L49.8885 67.9914Z" fill="#FDD77E"/>
<path d="M37.2755 57.6068L37.0589 57.7085L39.9172 85.98L40.6858 93.5345L56.1913 79.4625L68.0092 68.7339L48.2385 72.572L37.2755 57.6068Z" fill="#FDD77E"/>
<g opacity="0.52">
<path opacity="0.52" d="M81.4019 18.429L71.5074 14.6305C66.0375 12.534 60.2863 11.9174 54.6276 12.592L27.3683 27.2271C22.9179 32.0387 19.1823 37.8626 16.5615 44.5374C15.1321 48.1553 14.1192 51.8155 13.498 55.4372L82.0115 18.6846C81.8102 18.5941 81.6032 18.5195 81.4019 18.429Z" fill="#EFBE70"/>
<path opacity="0.52" d="M12.8108 67.7322L92.2129 25.1274C91.3586 24.3524 90.4712 23.6194 89.5507 22.9283L12.7077 64.1731C12.69 65.3707 12.7316 66.5537 12.8108 67.7322Z" fill="#EFBE70"/>
<path opacity="0.52" d="M22.8572 93.5801L104.781 49.6196C104.307 46.5916 103.578 43.6696 102.568 40.8799L17.9063 86.2977C19.2946 88.9362 20.9555 91.3675 22.8572 93.5801Z" fill="#EFBE70"/>
<path opacity="0.52" d="M36.643 103.309L41.9696 105.354L103.066 72.5593C103.625 70.6583 104.092 68.7604 104.437 66.8541L36.5952 103.292C36.6111 103.297 36.6271 103.303 36.643 103.309Z" fill="#EFBE70"/>
</g>
</g>
<defs>
<clipPath id="clip0_89_801">
<rect width="91.0163" height="95.4999" fill="white" transform="translate(32.3711 0.458008) rotate(19.8137)"/>
</clipPath>
</defs>
</svg>
