<svg width="327" height="281" viewBox="0 0 327 281" fill="none" xmlns="http://www.w3.org/2000/svg">
<g clip-path="url(#clip0_68_208)">
<g style="mix-blend-mode:multiply" opacity="0.6">
<path d="M16.195 103.171L9.13989 104.249C21.7173 157.412 30.1677 216.913 36.0398 280.33L300.202 236.595L298.819 227.536L16.195 103.171Z" fill="#B86053"/>
</g>
<path d="M270.336 54.6018L155.804 20.8043L155.394 20.6816L155.018 20.9244L46.8702 91.975L47.1658 92.4242L155.712 22.899L270.209 55.1157L270.336 54.6018Z" fill="#9E4015"/>
<path d="M305.755 230.947L39.4768 269.072L13.0966 96.393L298.293 49.239L305.755 230.947Z" fill="url(#paint0_linear_68_208)"/>
<path d="M13.103 96.4332L298.299 49.2793L298.585 56.2809L13.6196 99.8151L13.103 96.4332ZM39.4801 269.092L305.735 230.95L305.484 224.582L38.9019 265.307L39.4801 269.092Z" fill="url(#paint1_linear_68_208)"/>
<path d="M159.84 25.7499C159.829 25.231 159.706 24.7206 159.479 24.2537C159.253 23.7867 158.928 23.3742 158.527 23.0442C158.126 22.7143 157.658 22.4748 157.156 22.342C156.654 22.2092 156.129 22.1864 155.616 22.275C154.529 22.4702 153.55 23.054 152.862 23.9173C152.174 24.7806 151.824 25.8644 151.877 26.9663C151.888 27.4851 152.011 27.9955 152.238 28.4625C152.464 28.9294 152.789 29.342 153.19 29.6719C153.591 30.0019 154.059 30.2414 154.561 30.3742C155.064 30.5069 155.589 30.5297 156.101 30.4411C157.188 30.2459 158.167 29.6621 158.855 28.7988C159.543 27.9355 159.893 26.8518 159.84 25.7499Z" fill="#8BA1A1"/>
<path d="M39.1367 113.592L57.1274 231.355L279.718 198.648L275.261 77.5192L39.1367 113.592Z" fill="#A9D498"/>
<path d="M237.461 122.826L235.718 123.566L237.186 124.804L237.461 122.826Z" fill="#FFE696"/>
<path d="M139.315 122.699L138.18 122.563L137.073 123.824L137.221 126.006L139.473 125.353L139.315 122.699Z" fill="#FFE696"/>
<path d="M231.809 132.279L233.269 132.922L232.311 130.431L231.809 132.279Z" fill="#FFE696"/>
<path d="M243.205 147.328L242.561 149.054L242.887 150.24L243.919 150.247L243.205 147.328Z" fill="#FFE696"/>
<path d="M143.855 124.601L143.004 123.619L142.912 122.211L141.446 121.117L140.942 119.443L139.793 120.154L140.136 121.997L141.159 122.211L141.536 124.275L140.505 124.68L140.502 125.876L142.336 125.863L143.855 124.601Z" fill="#FFE696"/>
<path d="M151.753 103.247L151.434 102.781L147.193 103.779L147.151 104.589L149.11 105.526L151.753 103.247Z" fill="#FFE696"/>
<path d="M245.054 151.697L243.308 152.01L243.466 152.892L245.212 152.579L245.054 151.697Z" fill="#FFE696"/>
<path d="M241.596 120.319L240.729 117.753L239.17 116.323L239.008 116.615L239.213 117.82L237.721 120.479L235.978 121.487L236.158 122.53L238.417 121.794L239.39 122.49L240.094 121.29L241.596 120.319Z" fill="#FFE696"/>
<path d="M237.368 142.74L238.905 144.565L239.233 145.36C239.233 145.36 240.483 145.169 240.523 145.162C240.563 145.156 240.74 143.069 240.74 143.069L239.91 141.692L239.12 142.596L237.663 141.562L237.368 142.74Z" fill="#FFE696"/>
<path d="M235.458 152.652L236.268 150.798L235.649 149.986L235.056 146.101L233.927 146.273L232.944 148.483L232.833 149.778L232.067 149.895L229.678 151.001L229.985 153.014C230.522 153.678 231.094 154.313 231.699 154.915C231.84 154.894 235.473 154.236 235.473 154.236L235.458 152.652Z" fill="#FFE696"/>
<path d="M239.576 155.03L240.955 154.47L240.008 152.863L240.82 151.565L239.012 151.882L238.206 150.522L240.457 150.673L241.411 150.3L241.403 148.221L240.205 149.29L237.969 149.24L237.25 150.607L237.759 152.321L237.17 153.462L237.529 155.405L238.002 156.074L238.606 155.57L238.07 153.818L238.888 153.364L239.576 155.03Z" fill="#FFE696"/>
<path d="M230.899 157.51L229.172 157.279C228.79 157.66 228.446 158.079 228.146 158.528L231.026 159.015L234.337 158.818L235.458 157.781L234.151 157.734L231.942 156.774L230.899 157.51Z" fill="#FFE696"/>
<path d="M252.103 149.264L250.255 149.588L249.408 151.201L247.221 150.793L246.938 151.64L247.295 152.492L249.221 152.136L251.289 152.17L251.978 153.98L251.431 154.723L252.782 155.197L254.698 155.852L256.076 154.611L257.225 154.435L259.48 155.966L260.798 155.95L258.621 153.584L258.163 152.067L253.572 150.235L252.103 149.264Z" fill="#FFE696"/>
<path d="M225.749 136.357L225.331 137.266L226.038 137.982L226.912 136.138L225.749 136.357Z" fill="#FFE696"/>
<path d="M238.438 115.178L240.203 114.847L240.041 113.924L236.88 113.212L237.321 115.699L238.438 115.178Z" fill="#FFE696"/>
<path d="M234.327 135.932L234.298 138.574L235.919 140.139L238.049 139.772L237.834 138.631L235.946 137.889L235.755 135.694L234.327 135.932Z" fill="#FFE696"/>
<path d="M232.461 106.842L231.805 107.271L236.639 112.177L237.865 111.969L235.903 110.333L236.808 109.906L232.461 106.842Z" fill="#FFE696"/>
<path d="M234.959 142.366L233.662 144.274L235.47 143.957L234.959 142.366Z" fill="#FFE696"/>
<path d="M242.97 157.808L244.738 157.497L241.593 157.03L240.594 159.263L242.54 158.904L242.97 157.808Z" fill="#FFE696"/>
<path d="M219.426 144.925L219.19 147.165L221.372 147.944L222.542 150.34L226.071 151.696L223.938 148.541L220.939 146.053L221.336 144.736L220.635 142.309L223.189 144.309L224.023 144.367L224.95 145.708L227.479 143.9L226.567 140.764L223.509 138.574L223.232 136.762L224.987 134.743L225.697 135.479L226.907 135.294L230.579 132.323L231.628 127.713L229.923 124.389L227.842 122.647L228.111 121.164L226.514 121.923L224.289 119.647L226.148 118.312L226.996 119.542L228.588 118.887L229.112 120.022L230.221 119.853L231.688 123.11L234.31 122.586L234.002 120.573L230.353 118.288L231.623 118.094L231.019 115.899L232.302 115.518L233.74 113.589L233.403 110.035L229.835 107.202L225.674 106.972L225.773 105.185L225.505 103.434L232.615 102.039L232.811 99.9488L235.291 100.785L235.59 99.5037L237.36 100.696L236.71 101.434L236.641 103.278L238.655 105.792L240.604 110.315L241.728 107.28L241.172 103.636L238.862 101.208L243.622 97.8028L241.047 97.1457L242.003 96.1138L245.403 96.0888L246.307 95.6622L244.237 94.5364L234.973 94.3861L219.857 97.2515L219.617 95.6814L213.459 95.8805L211.932 97.2262L207.759 98.1315L206.634 96.8408L197.197 98.5297L196.04 99.0567L195.286 98.9864L195.994 98.219L196.233 96.6787L187.801 98.1935L181.258 101.542L181.114 102.758L183.295 105.021L180.635 107.055L178.503 102.416L177.331 102.842L177.556 105.259L168.436 107.27L165.335 108.98L164.798 110.463L161.814 111.722L160.198 110.053L163.624 109.53L163.443 108.342L159.992 108.437L157.008 107.677L150.638 110.401L148.005 114.635L145.432 115.481L145.209 116.855L146.866 118.929L148.961 117.249L151.231 119.416L152.157 119.398L154.077 116.571L151.999 115.261L153.248 113.711L154.571 111.572L155.299 112.017L154.645 114.754L155.6 115.741L158.777 114.122L159.2 115.809L156.352 116.615L157.174 117.54L156.58 118.372L155.469 117.986L154.784 118.77L155.691 119.579L154.527 121.137L153.507 120.675L152.178 121.558L151.344 121.232L149.881 121.785L148.546 119.929L147.871 120.238L148.501 122.202L146.676 122.811L143.217 127.85L140.915 128.449L141.002 129.013L142.38 128.988L142.842 131.204L140.452 132.166L138.187 131.791L137.42 132.712L138.273 134.374L137.856 137.589L141.361 137.981L144.769 136.389L144.114 133.996L146.124 132.165L146.032 131.561L150.705 130.147L154.517 132.283L154.266 134.011L155.073 134.3L155.716 132.43L156.598 132.13L156.518 131.607L153.489 130.01L152.035 128.728L152.528 128.035L156.388 130.082L157.052 129.836L158.119 131.96L159.53 131.744L159.42 133.182L160.605 133.784L161.315 132.625L160.214 131.496L162.557 130.087L163.003 130.307L163.526 129.548L162.954 128.234L164.497 124.826L166.67 126.224L167.711 125.344L166.678 124.658L168.469 122.88L168.982 123.131L168.766 125.224L172.056 126.782L171.433 128.504L166.43 128.568L163.073 131.306L163.699 133.106L167.336 132.88L169.552 131.861L169.503 136.936L163.672 138.466L160.29 136.716L159.076 137.952L159.454 139.213L156.609 139.359L155.282 137.832L152.471 138.467L151.73 137.53L152.656 135.761L151.53 135.006L149.893 136.039L146.444 136.689L143.87 138.607L141.799 138.552L140.328 139.457L138.74 142.563L139.055 143.277L134.567 151.708L136.107 153.822L135.396 156.32L139.155 159.866L139.156 161.493L142.932 163.12L145.514 161.922L147.073 163.085L151.698 160.545L153.617 161.9L155.633 161.592L157.206 164.462L156.379 165.804L157.914 168.021L159.414 168.389L161.82 174.552L160.803 178.56L164.555 184.352L164.78 187.037L167.602 190.252L167.673 191.93L168.952 192.744L171.123 191.424L172.468 191.589L176.886 185.805L176.922 183.204L178.689 182.213L178.912 180.84L177.587 179.188L179.209 176.304L180.869 175.288L181.378 169.978L178.701 165.958L183.595 157.485L185.898 150.953L184.581 150.165L181.22 152.739L179.703 152.126L179.143 150.893L175.51 149.388L175.31 148.08L173.002 146.475L173.453 145.109L168.807 139.268L170.069 138.21L175.096 144.116L174.55 144.859L178.281 147.543L178.564 149.395L180.199 150.649L185.557 146.968L189.017 140.856L185.633 139.499L184.366 140.928L179.519 137.961L180.228 136.39L184.205 138.254L185.335 137.278L188.053 138.593L191.97 137.233L193.581 137.378L195.904 139.083L196.63 140.188L197.687 139.14L199.621 141.399L201.244 145.272L204.169 149.707L206.105 147.928L205.49 143.902L210.418 136.33L215.073 138.441L216.116 141.084L216.9 140.14L218.42 141.041L219.426 144.925ZM181.219 128.966L179.69 130.436L178.15 129.27L177.399 127.325L175.058 125.499L174.639 122.761L176.929 121.546L179.126 122.426L177.418 123.8L177.609 125.048L181.797 126.942L181.219 128.966Z" fill="#FFE696"/>
<path d="M185.334 173.864L184.152 174.766L185.077 177.447L183.822 179.493L184.603 181.227L186.451 182.119L187.75 179.552L188.222 172.105L187.44 171.441L185.334 173.864Z" fill="#FFE696"/>
<path d="M130.119 117.326L132.141 117.326L134.379 114.966L133.858 114.386L129.621 115.816L130.119 117.326Z" fill="#FFE696"/>
<path d="M129.839 110.901L132.847 104.529L126.83 104.706L120.407 107.356L113.994 108.048L111.405 110.544L107.894 111.328L108.011 112.629L111.946 111.924L114.872 115.412L113.027 117.651L113.074 120.795L117.168 122.477L118.813 118.394L122.075 117.463L123.293 115.176L126.807 114.413L128.115 111.226L129.839 110.901Z" fill="#FFE696"/>
<path d="M108.05 109.78L111.237 108.901L111.269 108.711L105.487 108.935L105.289 110.613L101.717 110.727L100.469 113.224L102.852 113.561L108.05 109.78Z" fill="#FFE696"/>
<path d="M269.939 173.794L269.029 173.644L269.367 175.447L268.319 177.502L268.388 179.572L270.115 179.267L271.512 176.932L269.939 173.794Z" fill="#FFE696"/>
<path d="M264.813 181.828C264.672 181.85 260.791 183.988 260.791 183.988L258.764 185.842L261.242 186.535L265.517 184.275L267.799 180.981L266.462 179.928C265.953 180.596 265.402 181.23 264.813 181.828Z" fill="#FFE696"/>
<path d="M85.6412 158.75L85.766 159.432L87.1507 159.179L89.2833 160.851L92.1918 160.716L94.2458 160.794L94.3831 160.072L92.3821 159.801L88.5753 157.972L85.6412 158.75Z" fill="#FFE696"/>
<path d="M258.717 172.439L257.75 170.568L257.98 168.287L253.552 164.555L253.314 161.913L251.281 158.598L249.994 158.816L251.14 161.73L249.45 164.172L248.176 164.202L245.051 161.837L245.222 160.121L242.584 160.545L241.727 161.417L241.895 163.596L241.253 163.715L238.827 162.685L238.228 163.085L236.888 167.142L235.319 168.618L230.545 171.799L230.113 173.162L231.821 178.937L230.62 181.201L232.038 181.706L234.839 180.33L239.228 178.815L242.369 177.367L244.473 178.446L245.879 177.387L247.147 180.283L248.891 181.17L251.059 180.51L253.264 180.626L257.169 175.806L258.717 172.439Z" fill="#FFE696"/>
<path d="M228.41 154.45L225.596 154.262L225.094 153.267L222.533 151.763L220.805 149.637L219.304 150.341L221.204 151.842L222.167 153.961L223.664 154.845C223.664 154.845 225.832 157.831 225.959 157.852C226.086 157.874 227.83 156.598 227.83 156.598L228.41 154.45Z" fill="#FFE696"/>
<path d="M104.615 133.747L105.852 134.959L109.271 133.304L107.787 131.285L104.615 133.747Z" fill="#FFE696"/>
<path d="M99.7699 117.019L103.311 119.403L101.417 122.267L103.887 123.579L106.165 119.049L102.002 116.101L96.5508 116.336L96.228 117.869L98.4628 118.454L99.7699 117.019Z" fill="#FFE696"/>
<path d="M94.9849 116.617L92.9961 116.426L93.2394 117.749L94.745 117.477L94.9849 116.617Z" fill="#FFE696"/>
<path d="M96.8607 114.044L96.2144 115.213L99.1942 115.005L96.8607 114.044Z" fill="#FFE696"/>
<path d="M91.4242 116.399L89.5041 117.063L89.4307 118.742L91.6336 117.5L91.4242 116.399Z" fill="#FFE696"/>
<path d="M95.6392 161.137L98.1103 161.11L100.121 159.958L99.3792 159.288L95.6453 159.962L95.6392 161.137Z" fill="#FFE696"/>
<path d="M82.4594 122.259L84.1587 120.825L84.963 121.094L87.8051 120.659L86.7952 119.99L87.348 118.072L85.1078 119.341L82.8713 118.879L80.4292 120.447L81.2751 120.854C81.2751 120.854 80.0107 121.624 79.8898 121.642C79.7688 121.661 82.4594 122.259 82.4594 122.259Z" fill="#FFE696"/>
<path d="M118.866 175.181L114.067 173.339L112.465 175.005L111.22 174.413L112.314 171.176L109.387 168.492L107.309 169.201L101.913 166.153L94.4983 167.038L92.0873 169.755L88.8236 170.13L86.7992 168.626L86.5539 165.265L83.5247 165.151L83.5015 160.272L81.3446 160.601L81.4303 162.648L78.869 164.111L76.2966 160.775L76.7708 156.047L79.9593 153.83L81.9676 154.553L82.1944 152.932L86.0749 152.813L88.1034 155.964L89.7126 154.75L87.9768 150.545L93.1244 146.297L92.177 144.011L102.852 136.386L101.441 134.706L98.7683 135.712L101.955 132.135L104.263 132.792L107.483 130.24L104.222 125.773L102.333 126.907L101.446 124.344L96.1985 125.372L96.4022 129.811L94.2819 130.65L93.4798 133.636L90.3273 132.984L91.5675 130.57L86.6036 129.268L92.8984 122.539L95.2589 123.002L97.4997 119.982L96.3005 119.423L94.6835 120.721L92.0982 119.056L89.8741 121.106L85.6192 121.879L83.5115 123.746L77.0829 122.174L67.1395 124.599L62.4234 123.569L56.6232 125.299L53.1602 127.477L53.1596 129.228L50.5795 129.622L52.3349 130.445L46.8169 133.348L47.8815 134.916L46.2963 138.042L47.0131 138.819L52.033 135.085L53.2202 135.295L60.2493 132.697L62.8674 134.172L62.8836 138.598L64.7812 141.028L59.6073 147.669L60.9354 152.987L63.228 154.49L64.2345 157.839L67.4045 161.845L67.9849 161.324L65.3756 157.747L65.0404 155.553L66.512 155.328L66.8195 157.341L71.8499 165.018L74.2858 165.841L77.0256 166.762L78.3833 165.792L81.1318 168.256L83.0738 167.465L85.803 171.827L91.4095 171.259L92.0916 172.618L90.0332 177.237L91.6683 178.759L90.0999 180.915L96.79 189.06L103.237 192.916L102.828 196.316L106.978 209.031L108.143 209.903L107.875 211.118L112.014 217.284L117.478 219.292L114.61 216.723L112.667 209.542L113.092 205.975L115.793 206.242L116.419 203.448L114.333 202.221L114.582 201.421L117.408 201.958L119.809 195.122L118.793 193.609L123.189 190.383L122.887 182.189L124.996 176.284L120.884 174.214L118.866 175.181ZM87.6182 138.61L85.6263 138.399L84.9745 138.993L83.7708 138.271L87.9386 136.522L88.3196 138.07L89.0337 138.559L90.5051 138.334L91.0399 139.674L89.3514 141.044L88.2201 139.445L86.954 140.339L85.8933 143.117L84.5024 143.33L85.2478 139.837L87.7449 138.9L87.6182 138.61Z" fill="#FFE696"/>
</g>
<defs>
<linearGradient id="paint0_linear_68_208" x1="194.569" y1="261.859" x2="149.572" y2="81.7812" gradientUnits="userSpaceOnUse">
<stop stop-color="#FFFBE4"/>
<stop offset="1" stop-color="#FFE696"/>
</linearGradient>
<linearGradient id="paint1_linear_68_208" x1="26.2131" y1="182.249" x2="311.945" y2="138.598" gradientUnits="userSpaceOnUse">
<stop stop-color="#9E4015"/>
<stop offset="0.01" stop-color="#A24415"/>
<stop offset="0.15" stop-color="#C96417"/>
<stop offset="0.27" stop-color="#E47B19"/>
<stop offset="0.38" stop-color="#F5891A"/>
<stop offset="0.46" stop-color="#FB8E1A"/>
<stop offset="0.61" stop-color="#F99B30"/>
<stop offset="0.91" stop-color="#F5BD69"/>
<stop offset="1" stop-color="#F3C87B"/>
</linearGradient>
<clipPath id="clip0_68_208">
<rect width="294.144" height="238.646" fill="white" transform="translate(0 44.4211) rotate(-8.68593)"/>
</clipPath>
</defs>
</svg>
