<svg width="120" height="135" viewBox="0 0 120 135" fill="none" xmlns="http://www.w3.org/2000/svg">
<path d="M115.907 76.2648L97.4192 15.8248L1.13513 51.6333L115.907 76.2648ZM88.2889 31.5876L96.7062 59.0365L41.6529 49.1308L88.2889 31.5876Z" fill="#E4B966"/>
<path d="M117.977 82.041L99.4194 21.3884L1.1352 51.7785L117.977 82.041ZM90.0364 36.4674L98.4854 64.0128L42.4056 51.2998L90.0364 36.4674Z" fill="url(#paint0_linear_68_366)"/>
<path d="M110.116 77.841L110.838 73.0411L108.784 72.9042L107.608 77.5044L110.116 77.841Z" fill="#827662"/>
<path d="M101.981 76.0008L102.601 71.2484L100.439 71.1646L99.4689 75.6639L101.981 76.0008Z" fill="#827662"/>
<path d="M93.7056 74.1122L94.3595 69.454L92.2009 69.3703L91.2323 73.8654L93.7056 74.1122Z" fill="#827662"/>
<path d="M85.4702 72.3179L86.1597 67.7496L83.9655 67.576L82.9613 71.9813L85.4702 72.3179Z" fill="#827662"/>
<path d="M77.2317 70.531L77.9228 65.957L75.7244 65.7833L74.8222 70.1407L77.2317 70.531Z" fill="#827662"/>
<path d="M68.9622 68.6408L69.5852 64.2086L67.4899 63.9816L66.5871 68.3404L68.9622 68.6408Z" fill="#827662"/>
<path d="M60.831 66.7933L61.3498 62.4144L59.1503 62.2407L58.3518 66.5462L60.831 66.7933Z" fill="#827662"/>
<path d="M52.5931 65.0063L53.1132 60.6219L50.9092 60.448L50.2132 64.7056L52.5931 65.0063Z" fill="#827662"/>
<path d="M44.3197 63.118L44.8735 58.8318L42.7118 58.7481L41.947 62.8177L44.3197 63.118Z" fill="#827662"/>
<path d="M36.0848 61.3238L36.6386 57.0376L34.477 56.9538L33.7121 61.0235L36.0848 61.3238Z" fill="#827662"/>
<path d="M27.8532 59.5352L28.3054 55.291L26.2391 55.1538L25.5749 59.1809L27.8532 59.5352Z" fill="#827662"/>
<path d="M19.7224 57.6875L20.0701 53.4968L18.0037 53.3596L17.3395 57.3867L19.7224 57.6875Z" fill="#827662"/>
<defs>
<linearGradient id="paint0_linear_68_366" x1="36.4992" y1="97.7148" x2="84.3863" y2="15.2964" gradientUnits="userSpaceOnUse">
<stop stop-color="#F8CAA1"/>
<stop offset="1" stop-color="#F5B851"/>
</linearGradient>
</defs>
</svg>
