<svg width="144" height="133" viewBox="0 0 144 133" fill="none" xmlns="http://www.w3.org/2000/svg">
<g clip-path="url(#clip0_68_411)">
<path d="M37.7336 6.57533L0.666993 78.6918L102.133 132.186L37.7336 6.57533ZM20.6779 72.4023L37.496 39.6316L69.9912 98.1298L20.6779 72.4023Z" fill="#CBB154"/>
<path d="M41.1641 0.000137913L4.09741 72.1166L102.133 132.186L41.1641 0.000137913ZM23.6509 66.7038L40.4691 33.9331L71.249 95.7188L23.6509 66.7038Z" fill="url(#paint0_linear_68_411)"/>
<path d="M45.9623 10.3107L41.317 13.6031L42.551 15.7804L47.1868 13.0407L45.9623 10.3107Z" fill="#F2AE3F"/>
<path d="M50.1742 19.3395L45.5289 22.6319L46.7629 24.8092L51.3988 22.0696L50.1742 19.3395Z" fill="#F2AE3F"/>
<path d="M54.2194 28.4206L49.7408 31.6605L50.9749 33.8379L55.5011 31.041L54.2194 28.4206Z" fill="#F2AE3F"/>
<path d="M58.4316 37.4489L54.1197 40.6364L55.187 42.8662L59.6561 40.1789L58.4316 37.4489Z" fill="#F2AE3F"/>
<path d="M62.6435 46.4777L58.3316 49.6652L59.3989 51.895L63.868 49.2077L62.6435 46.4777Z" fill="#F2AE3F"/>
<path d="M66.7982 55.6159L62.5436 58.6939L63.7204 60.9808L67.9703 58.1792L66.7982 55.6159Z" fill="#F2AE3F"/>
<path d="M71.0104 64.6447L66.7557 67.7227L67.9326 70.0096L72.1825 67.208L71.0104 64.6447Z" fill="#F2AE3F"/>
<path d="M75.1127 73.6164L70.9676 76.7515L72.1445 79.0384L76.3944 76.2368L75.1127 73.6164Z" fill="#F2AE3F"/>
<path d="M79.2677 82.7546L75.1798 85.7801L76.4138 87.9575L80.4398 85.3179L79.2677 82.7546Z" fill="#F2AE3F"/>
<path d="M83.4796 91.7834L79.5013 94.8661L80.6258 96.9863L84.6517 94.3467L83.4796 91.7834Z" fill="#F2AE3F"/>
<path d="M87.6915 100.812L83.7132 103.895L84.8377 106.015L88.8637 103.375L87.6915 100.812Z" fill="#F2AE3F"/>
<path d="M91.9037 109.841L87.9253 112.923L89.1594 115.101L92.9662 112.347L91.9037 109.841Z" fill="#F2AE3F"/>
</g>
<defs>
<linearGradient id="paint0_linear_68_411" x1="114.488" y1="58.5231" x2="7.69382" y2="77.4125" gradientUnits="userSpaceOnUse">
<stop stop-color="#F8CAA1"/>
<stop offset="1" stop-color="#F5B851"/>
</linearGradient>
<clipPath id="clip0_68_411">
<rect width="88.9937" height="115.197" fill="white" transform="translate(143.297 53.2847) rotate(117.552)"/>
</clipPath>
</defs>
</svg>
