<svg width="104" height="80" viewBox="0 0 104 80" fill="none" xmlns="http://www.w3.org/2000/svg">
<g clip-path="url(#clip0_68_271)">
<path d="M94.0307 41.3848C93.9291 41.1025 93.8276 40.8202 93.726 40.538C93.3197 39.4088 92.8532 38.4077 92.3528 37.3124C91.3859 35.2159 90.2308 33.1872 88.9477 31.0983C86.3552 27.1424 83.0702 23.3294 79.04 20.1034C76.9778 18.5074 74.7613 17.0731 72.3302 15.9286C69.8991 14.7841 67.2196 13.8353 64.5815 13.2967C59.1772 12.1593 53.5205 12.388 48.4922 13.7722C47.269 14.2124 46.0119 14.5585 44.7887 14.9986C44.2241 15.2017 43.5655 15.4387 43.0009 15.6419L41.1867 16.5072C39.9974 17.0415 38.7816 17.7978 37.6261 18.4261C36.5383 19.2426 35.2887 19.9048 34.2687 20.9095C29.8911 24.3977 26.601 29.7264 25.3356 35.0704C23.9761 40.4483 24.2576 45.6609 25.258 50.5085C25.7883 52.8683 26.5068 55.1604 27.4135 57.3848C27.9138 58.4801 28.3201 59.6092 28.8808 60.5765C29.1103 60.919 29.2457 61.2954 29.5091 61.732L17.5104 65.3056L26.0181 75.954L102.227 48.2131L100.625 39.3309L94.0307 41.3848ZM39.2047 57.0742C39.0882 56.1597 38.8776 55.279 38.8551 54.3306C38.6221 52.5014 38.4831 50.6385 38.5059 48.9298C38.5178 45.4184 38.9473 42.1818 40.0241 39.5626C40.5323 38.3169 41.1685 37.1315 41.9666 36.1004C42.3016 35.5547 42.7985 35.1634 43.2615 34.678C43.7583 34.2866 44.2213 33.8012 44.8122 33.376C45.3091 32.9847 45.9339 32.6536 46.5248 32.2284L47.526 31.7619L47.9626 31.4985L48.5272 31.2953L49.5284 30.8288L50.6575 30.4225C51.4102 30.1517 52.1968 29.9749 52.9496 29.704C56.0283 28.8088 58.9677 28.7076 61.8542 29.0505C63.3145 29.269 64.7145 29.6155 66.1822 30.1501C67.6499 30.6848 69.0573 31.3474 70.4384 32.232C73.2608 33.8734 76.038 36.2749 78.5667 38.8722C79.895 40.2009 81.069 41.6914 82.3032 43.054C82.6946 43.5509 83.0859 44.0477 83.4434 44.4505L39.4228 58.2711L39.2047 57.0742Z" fill="#CEA512"/>
<path d="M89.7701 43.1304C89.6685 42.8481 89.6611 42.532 89.5595 42.2497C89.2473 41.0867 88.969 40.0178 88.5627 38.8887C87.878 36.6907 86.8773 34.5002 85.9104 32.4037C83.7883 28.2785 81.0679 24.2624 77.5081 20.8672C75.6341 19.2034 73.6999 17.6676 71.457 16.4554C69.2141 15.2432 66.8169 14.1928 64.1787 13.6542C59.0567 12.4152 53.5882 12.5762 48.5599 13.9604C47.269 14.2124 46.0119 14.5584 44.7887 14.9986C44.2241 15.2017 43.5655 15.4387 43.0009 15.6419L41.1867 16.5072C39.9974 17.0414 38.7816 17.7977 37.532 18.4599C36.3502 19.3103 35.1006 19.9725 33.9864 21.0111C29.3266 24.6008 25.66 30.0649 23.736 35.646C21.812 41.227 21.5628 46.7368 21.9647 51.6935C22.2127 54.1549 22.6489 56.5486 23.2733 58.8745C23.5855 60.0375 23.9918 61.1666 24.3981 62.2958C24.5335 62.6721 24.669 63.0485 24.8383 63.519L12.9675 67.1528L19.902 78.1547L96.8633 50.143L96.2701 41.1104L89.7701 43.1304ZM34.85 58.8537C34.8276 57.9053 34.8051 56.9569 34.7827 56.0085C34.7378 54.1116 34.787 52.1809 34.9981 50.4046C35.3863 46.7577 36.1922 43.3857 37.4572 40.6987C38.1536 39.3854 38.8839 38.1661 39.682 37.135C40.1111 36.5555 40.6079 36.1641 41.0709 35.6787C41.5678 35.2874 42.1249 34.7681 42.7158 34.3429C43.2126 33.9516 43.9315 33.5866 44.5225 33.1614L45.5237 32.6949L46.0544 32.3977L46.6189 32.1945L47.7142 31.6941L48.8433 31.2878C49.5961 31.017 50.3827 30.8402 51.1354 30.5693C54.2142 29.6741 57.0594 29.6068 59.8519 29.9836C61.218 30.2359 62.5239 30.6162 63.8975 31.1847C65.2711 31.7532 66.4904 32.4836 67.7774 33.4021C70.3176 35.145 72.8124 37.6481 74.9986 40.4749C76.1387 41.8713 77.1246 43.4296 78.2045 44.954C78.5017 45.4847 78.893 45.9815 79.1903 46.5122L34.9476 60.3064L34.85 58.8537Z" fill="url(#paint0_linear_68_271)"/>
<path d="M75.3058 25.3793L76.1826 26.3391L79.5515 23.0014C79.066 22.5384 78.6747 22.0415 78.1893 21.5786L75.3058 25.3793Z" fill="#F0B53E"/>
<path d="M72.9661 17.4002C72.4205 17.0652 71.8748 16.7302 71.3291 16.3951C71.3291 16.3951 71.3291 16.3951 71.2012 16.3349L69.3752 20.7116L70.3724 21.4156L72.9661 17.4002Z" fill="#F0B53E"/>
<path d="M80.333 31.9663L80.9613 33.1218L84.857 30.6572C84.5597 30.1265 84.2286 29.5017 83.8373 29.0049L80.333 31.9663Z" fill="#F0B53E"/>
<path d="M27.0555 59.6391L27.0256 58.3745L23.2997 58.6525C23.3335 58.7466 23.3335 58.7466 23.3674 58.8407C23.5705 59.4052 23.6457 59.9096 23.8489 60.4741L27.0555 59.6391Z" fill="#F0B53E"/>
<path d="M84.3962 40.6005L84.8363 41.8237L89.0367 40.206C88.8674 39.7356 88.6981 39.2651 88.6568 38.8548C88.5891 38.6667 88.5214 38.4785 88.4875 38.3844L84.3962 40.6005Z" fill="#F0B53E"/>
<path d="M63.7009 13.5073L62.9513 17.9219L64.1631 18.336L65.5789 14.0006C65.1009 13.8538 64.623 13.7069 64.0509 13.5939C63.9568 13.6278 63.8289 13.5676 63.7009 13.5073Z" fill="#F0B53E"/>
<path d="M41.9058 16.1422L43.6892 19.3264L44.9463 18.9804L43.6935 15.4989C43.5054 15.5666 43.2231 15.6682 43.0349 15.7359L41.9058 16.1422Z" fill="#F0B53E"/>
<path d="M56.2824 16.8143L57.6147 16.9726L57.9277 12.8215C57.2954 12.8364 56.6632 12.8514 56.0309 12.8663L56.2824 16.8143Z" fill="#F0B53E"/>
<path d="M25.9092 49.9553L26.1013 48.7171L21.8824 48.2159C21.8974 48.8482 21.9124 49.4805 21.9273 50.1128L25.9092 49.9553Z" fill="#F0B53E"/>
<path d="M25.0803 32.2929L29.0732 33.9381L29.7771 32.9409L25.9575 30.5956C25.6224 31.1413 25.2874 31.687 25.0803 32.2929Z" fill="#F0B53E"/>
<path d="M27.0699 40.1853L22.8286 38.7357C22.6215 39.3416 22.5424 40.0077 22.4294 40.5798L26.6219 41.303L27.0699 40.1853Z" fill="#F0B53E"/>
<path d="M32.8188 27.8078L33.7786 26.9311L30.6704 23.9047C30.2074 24.3901 29.8385 24.8417 29.3755 25.3271L32.8188 27.8078Z" fill="#F0B53E"/>
<path d="M48.6203 13.8324L49.6171 17.1934L50.8478 17.0694L50.3479 13.3171C49.7833 13.5202 49.2187 13.7234 48.6203 13.8324Z" fill="#F0B53E"/>
<path d="M35.2888 19.9048L37.8588 22.9122L39.0143 22.2839L36.847 18.9189C36.3163 19.2162 35.8195 19.6075 35.2888 19.9048Z" fill="#F0B53E"/>
</g>
<defs>
<linearGradient id="paint0_linear_68_271" x1="20.1718" y1="4.31157" x2="69.1865" y2="75.676" gradientUnits="userSpaceOnUse">
<stop stop-color="#F8DAA1"/>
<stop offset="1" stop-color="#F5D151"/>
</linearGradient>
<clipPath id="clip0_68_271">
<rect width="91.9" height="51" fill="white" transform="translate(0 31.1148) rotate(-19.7902)"/>
</clipPath>
</defs>
</svg>
