<svg width="20" height="478" viewBox="0 0 20 478" fill="none" xmlns="http://www.w3.org/2000/svg">
<g clip-path="url(#clip0_97_1898)">
<path d="M17.937 79.5001C18.337 78.2001 18.037 76.9001 17.937 75.6001C17.637 74.3001 17.537 72.9001 16.837 71.7001C16.537 71.1001 15.637 70.9001 15.137 71.4001C14.337 72.0001 14.837 73.1001 14.937 73.9001C15.437 75.6001 15.737 77.4001 15.837 79.2001C15.937 80.2001 17.437 80.4001 17.937 79.5001Z" fill="white"/>
<path d="M14.9372 95.5998C15.7372 94.2998 16.0372 92.7998 16.4372 91.3998C16.7372 89.7998 17.2372 88.2998 17.1372 86.6998C17.0372 85.8998 16.2372 85.3998 15.4372 85.6998C14.7372 85.9998 14.7372 86.7998 14.6372 87.3998C14.3372 89.4998 14.0372 91.5998 13.3372 93.6998C13.1372 94.2998 12.8372 94.9998 13.1372 95.6998C13.6372 96.0998 14.5372 96.2998 14.9372 95.5998Z" fill="white"/>
<path d="M13.5374 16.1997C13.9374 14.3997 14.4374 12.5997 14.4374 10.7997C14.4374 9.79975 13.3374 8.99975 12.5374 9.69975C12.0374 9.99975 12.1374 10.6997 12.0374 11.0997C11.8374 12.7997 11.3374 14.3997 11.4374 16.0997C11.7374 17.0997 13.2374 17.1997 13.5374 16.1997Z" fill="white"/>
<path d="M12.0374 153C12.6374 153.8 13.9374 153.8 14.4374 152.9C14.7374 152.4 14.3374 151.8 14.0374 151.4C12.4374 149.5 12.1374 146.9 10.8374 144.8C10.5374 144.2 9.73737 144 9.13737 144.3C8.13737 145 8.93737 146.3 9.23737 147.1C10.0374 149.2 10.7374 151.3 12.0374 153Z" fill="white"/>
<path d="M11.8372 6.49988C12.5372 7.19988 14.0372 6.49988 13.6372 5.49988C13.2372 3.89988 12.8372 2.39988 12.3372 0.899878C12.0372 0.0998775 10.9372 -0.400122 10.3372 0.399878C9.73719 1.09988 10.2372 2.09988 10.3372 2.89988C10.8372 4.09988 11.0372 5.39988 11.8372 6.49988Z" fill="white"/>
<path d="M11.6373 64.1997C12.3373 65.0997 14.2373 64.1997 13.5373 63.0997C12.7373 61.6997 12.1373 60.0997 11.4373 58.6997C11.1373 57.8997 10.1373 57.0997 9.33727 57.6997C8.53727 58.1997 9.03727 59.2997 9.33727 59.9997C10.1373 61.3997 10.5373 62.9997 11.6373 64.1997Z" fill="white"/>
<path d="M8.93701 110C9.63701 109.4 9.83701 108.4 10.237 107.6C10.837 106.1 11.637 104.7 11.837 103C11.937 102.1 10.937 101.3 10.137 101.8C9.43701 102.3 9.33701 103.1 9.03701 103.8C8.53701 105.4 7.73701 106.8 7.33701 108.4C6.93701 109.5 8.03701 110.5 8.93701 110Z" fill="white"/>
<path d="M5.8374 28.6997C5.8374 29.7997 7.6374 30.0997 8.0374 29.0997C8.9374 27.1997 10.0374 25.2997 10.8374 23.2997C11.4374 22.1997 10.0374 20.9997 9.0374 21.7997C8.3374 22.5997 8.0374 23.5997 7.5374 24.4997C7.0374 25.8997 6.1374 27.1997 5.8374 28.6997Z" fill="white"/>
<path d="M6.23716 138.2C6.33716 138.8 6.43716 139.6 7.13716 139.7C7.93716 140.1 8.73716 139.1 8.63716 138.3C8.43716 136.3 8.13716 134.2 7.73716 132.2C7.63716 131.4 6.73716 130.6 5.93716 131.1C5.13716 131.4 5.33716 132.5 5.33716 133.1C5.63716 134.8 5.93716 136.5 6.23716 138.2Z" fill="white"/>
<path d="M4.73711 45.2997C3.83711 45.7997 4.23711 46.9997 4.33711 47.7997C4.83711 49.8997 5.13711 52.0997 6.13711 53.9997C6.43711 54.6997 7.53711 54.9997 8.13711 54.3997C8.73711 53.8997 8.23711 53.0997 8.03711 52.4997C7.23711 50.4997 7.13711 48.3997 6.53711 46.2997C6.33711 45.4997 5.53711 44.8997 4.73711 45.2997Z" fill="white"/>
<path d="M5.03735 125.6C5.43735 126.5 7.03735 126.4 7.13735 125.4C7.53735 122.9 7.43735 120.3 7.43735 117.8C7.53735 116.9 6.83735 115.9 5.93735 116.2C5.33735 116.3 5.13735 116.9 5.03735 117.5C4.83735 119.3 5.13735 121.1 5.03735 122.9C4.93735 123.8 4.73735 124.7 5.03735 125.6Z" fill="white"/>
<path d="M5.93721 40.7998C6.13721 38.9998 6.63721 37.2998 6.73721 35.4998C6.83721 34.6998 5.93721 33.8998 5.13721 34.2998C4.43721 34.6998 4.43721 35.5998 4.23721 36.2998C4.03721 37.7998 3.53721 39.3998 3.83721 40.8998C4.13721 41.7998 5.73721 41.7998 5.93721 40.7998Z" fill="white"/>
</g>
<g clip-path="url(#clip1_97_1898)">
<path d="M14.937 403.5C15.337 402.2 15.037 400.9 14.937 399.6C14.637 398.3 14.537 396.9 13.837 395.7C13.537 395.1 12.637 394.9 12.137 395.4C11.337 396 11.837 397.1 11.937 397.9C12.437 399.6 12.737 401.4 12.837 403.2C12.937 404.2 14.437 404.4 14.937 403.5Z" fill="white"/>
<path d="M11.9372 419.6C12.7372 418.3 13.0372 416.8 13.4372 415.4C13.7372 413.8 14.2372 412.3 14.1372 410.7C14.0372 409.9 13.2372 409.4 12.4372 409.7C11.7372 410 11.7372 410.8 11.6372 411.4C11.3372 413.5 11.0372 415.6 10.3372 417.7C10.1372 418.3 9.83717 419 10.1372 419.7C10.6372 420.1 11.5372 420.3 11.9372 419.6Z" fill="white"/>
<path d="M10.5374 340.2C10.9374 338.4 11.4374 336.6 11.4374 334.8C11.4374 333.8 10.3374 333 9.53739 333.7C9.03739 334 9.13739 334.7 9.03739 335.1C8.83739 336.8 8.33739 338.4 8.43739 340.1C8.73739 341.1 10.2374 341.2 10.5374 340.2Z" fill="white"/>
<path d="M8.83719 330.5C9.53719 331.2 11.0372 330.5 10.6372 329.5C10.2372 327.9 9.83719 326.4 9.33719 324.9C9.03719 324.1 7.93719 323.6 7.33719 324.4C6.73719 325.1 7.23719 326.1 7.33719 326.9C7.83719 328.1 8.03719 329.4 8.83719 330.5Z" fill="white"/>
<path d="M8.63727 388.2C9.33727 389.1 11.2373 388.2 10.5373 387.1C9.73727 385.7 9.13727 384.1 8.43727 382.7C8.13727 381.9 7.13727 381.1 6.33727 381.7C5.53727 382.2 6.03727 383.3 6.33727 384C7.13727 385.4 7.53727 387 8.63727 388.2Z" fill="white"/>
<path d="M2.8374 352.7C2.8374 353.8 4.6374 354.1 5.0374 353.1C5.9374 351.2 7.0374 349.3 7.8374 347.3C8.4374 346.2 7.0374 345 6.0374 345.8C5.3374 346.6 5.0374 347.6 4.5374 348.5C4.0374 349.9 3.1374 351.2 2.8374 352.7Z" fill="white"/>
<path d="M1.73711 369.3C0.837109 369.8 1.23711 371 1.33711 371.8C1.83711 373.9 2.13711 376.1 3.13711 378C3.43711 378.7 4.53711 379 5.13711 378.4C5.73711 377.9 5.23711 377.1 5.03711 376.5C4.23711 374.5 4.13711 372.4 3.53711 370.3C3.33711 369.5 2.53711 368.9 1.73711 369.3Z" fill="white"/>
<path d="M2.93721 364.8C3.13721 363 3.63721 361.3 3.73721 359.5C3.83721 358.7 2.93721 357.9 2.13721 358.3C1.43721 358.7 1.43721 359.6 1.23721 360.3C1.03721 361.8 0.537207 363.4 0.837207 364.9C1.13721 365.8 2.73721 365.8 2.93721 364.8Z" fill="white"/>
<path d="M7.58125 446.233C7.95133 447.162 9.20616 447.502 9.92398 446.764C10.3442 446.36 10.1149 445.676 9.92988 445.212C8.88201 442.959 9.27189 440.371 8.56586 438.005C8.43309 437.347 7.71316 436.945 7.05561 437.078C5.90743 437.492 6.33989 438.956 6.4204 439.807C6.64381 442.043 6.77069 444.253 7.58125 446.233Z" fill="white"/>
<path d="M5.85062 430.432C5.79035 431.037 5.67781 431.835 6.32735 432.115C6.99502 432.71 8.02855 431.954 8.14109 431.155C8.4707 429.172 8.72992 427.067 8.86649 425.032C8.97903 424.234 8.31937 423.226 7.4165 423.5C6.5659 423.58 6.47149 424.694 6.31469 425.274C6.16 426.993 6.00531 428.712 5.85062 430.432Z" fill="white"/>
</g>
<g clip-path="url(#clip2_97_1898)">
<path d="M4.94534 241.813C4.52867 240.459 4.84117 239.104 4.94534 237.75C5.25784 236.396 5.362 234.938 6.09117 233.688C6.40367 233.063 7.34117 232.854 7.862 233.375C8.69534 234 8.1745 235.146 8.07034 235.979C7.5495 237.75 7.237 239.625 7.13284 241.5C7.02867 242.542 5.46617 242.75 4.94534 241.813Z" fill="white"/>
<path d="M8.07043 258.583C7.2371 257.229 6.9246 255.667 6.50793 254.208C6.19543 252.542 5.6746 250.979 5.77876 249.313C5.88293 248.479 6.71626 247.958 7.5496 248.271C8.27876 248.583 8.27876 249.417 8.38293 250.042C8.69543 252.229 9.00793 254.417 9.7371 256.604C9.94543 257.229 10.2579 257.958 9.94543 258.688C9.4246 259.104 8.4871 259.313 8.07043 258.583Z" fill="white"/>
<path d="M9.52886 175.875C9.11219 174 8.59136 172.125 8.59136 170.25C8.59136 169.208 9.73719 168.375 10.5705 169.104C11.0914 169.417 10.9872 170.146 11.0914 170.563C11.2997 172.333 11.8205 174 11.7164 175.771C11.4039 176.813 9.84136 176.917 9.52886 175.875Z" fill="white"/>
<path d="M11.0915 318.375C10.4665 319.208 9.11233 319.208 8.5915 318.271C8.279 317.75 8.69567 317.125 9.00817 316.708C10.6748 314.729 10.9873 312.021 12.3415 309.833C12.654 309.208 13.4873 309 14.1123 309.313C15.154 310.042 14.3207 311.396 14.0082 312.229C13.1748 314.417 12.4457 316.604 11.0915 318.375Z" fill="white"/>
<path d="M11.2996 165.771C10.5705 166.5 9.00798 165.771 9.42464 164.729C9.84131 163.063 10.258 161.5 10.7788 159.938C11.0913 159.104 12.2371 158.583 12.8621 159.417C13.4871 160.146 12.9663 161.188 12.8621 162.021C12.3413 163.271 12.133 164.625 11.2996 165.771Z" fill="white"/>
<path d="M11.5082 225.875C10.779 226.813 8.79984 225.875 9.529 224.729C10.3623 223.271 10.9873 221.604 11.7165 220.146C12.029 219.313 13.0707 218.479 13.904 219.104C14.7373 219.625 14.2165 220.771 13.904 221.5C13.0707 222.959 12.654 224.625 11.5082 225.875Z" fill="white"/>
<path d="M14.3204 273.584C13.5913 272.959 13.3829 271.917 12.9663 271.084C12.3413 269.521 11.5079 268.063 11.2996 266.292C11.1954 265.354 12.2371 264.521 13.0704 265.042C13.7996 265.563 13.9038 266.396 14.2163 267.125C14.7371 268.792 15.5704 270.25 15.9871 271.917C16.4038 273.063 15.2579 274.104 14.3204 273.584Z" fill="white"/>
<path d="M17.5498 188.896C17.5498 190.042 15.6748 190.354 15.2581 189.313C14.3206 187.334 13.1748 185.354 12.3415 183.271C11.7165 182.125 13.1748 180.875 14.2165 181.709C14.9456 182.542 15.2581 183.584 15.779 184.521C16.2998 185.979 17.2373 187.334 17.5498 188.896Z" fill="white"/>
<path d="M17.1331 302.958C17.0289 303.583 16.9248 304.417 16.1956 304.521C15.3623 304.937 14.5289 303.896 14.6331 303.062C14.8414 300.979 15.1539 298.792 15.5706 296.708C15.6748 295.875 16.6123 295.042 17.4456 295.562C18.2789 295.875 18.0706 297.021 18.0706 297.646C17.7581 299.417 17.4456 301.187 17.1331 302.958Z" fill="white"/>
<path d="M18.6955 206.188C19.633 206.709 19.2163 207.959 19.1121 208.792C18.5913 210.979 18.2788 213.271 17.2371 215.25C16.9246 215.979 15.7788 216.292 15.1538 215.667C14.5288 215.146 15.0496 214.313 15.258 213.688C16.0913 211.604 16.1955 209.417 16.8205 207.229C17.0288 206.396 17.8621 205.771 18.6955 206.188Z" fill="white"/>
<path d="M18.3828 289.834C17.9661 290.771 16.2995 290.667 16.1953 289.625C15.7786 287.021 15.8828 284.313 15.8828 281.709C15.7786 280.771 16.5078 279.729 17.4453 280.042C18.0703 280.146 18.2786 280.771 18.3828 281.396C18.5911 283.271 18.2786 285.146 18.3828 287.021C18.487 287.959 18.6953 288.896 18.3828 289.834Z" fill="white"/>
<path d="M17.4455 201.5C17.2372 199.625 16.7163 197.854 16.6122 195.979C16.508 195.146 17.4455 194.313 18.2788 194.729C19.008 195.146 19.008 196.084 19.2163 196.813C19.4247 198.375 19.9455 200.042 19.633 201.604C19.3205 202.542 17.6538 202.542 17.4455 201.5Z" fill="white"/>
</g>
<defs>
<clipPath id="clip0_97_1898">
<rect width="14.4" height="153.6" fill="white" transform="translate(3.7373)"/>
</clipPath>
<clipPath id="clip1_97_1898">
<rect width="14.4" height="153.6" fill="white" transform="translate(0.737305 324)"/>
</clipPath>
<clipPath id="clip2_97_1898">
<rect width="15" height="160" fill="white" transform="matrix(-1 0 0 1 19.7373 159)"/>
</clipPath>
</defs>
</svg>
